<?xml version="1.0" standalone="no"?>
<!DOCTYPE svg PUBLIC "-//W3C//DTD SVG 20010904//EN"
 "http://www.w3.org/TR/2001/REC-SVG-20010904/DTD/svg10.dtd">
<svg version="1.0" xmlns="http://www.w3.org/2000/svg"
 width="1280.000000pt" height="720.000000pt" viewBox="0 0 1280.000000 720.000000"
 preserveAspectRatio="xMidYMid meet">
<metadata>
Created by potrace 1.16, written by Peter Selinger 2001-2019
</metadata>
<g transform="translate(0.000000,720.000000) scale(0.100000,-0.100000)"
fill="#000000" stroke="none">
<path d="M9243 5076 c-105 -34 -206 -124 -250 -224 -48 -109 -40 -261 19 -362
105 -177 329 -247 513 -162 197 93 284 309 205 515 -30 80 -113 167 -197 209
-57 28 -78 33 -157 35 -57 2 -107 -2 -133 -11z m240 -94 c66 -29 140 -103 168
-165 29 -67 31 -161 5 -237 -26 -76 -111 -160 -186 -185 -158 -54 -324 15
-397 163 -37 75 -39 181 -5 257 25 55 90 128 137 152 88 47 193 53 278 15z"/>
<path d="M9265 4901 c-84 -39 -135 -120 -135 -213 1 -69 27 -125 80 -171 96
-82 221 -76 312 14 146 146 43 390 -164 389 -30 0 -70 -8 -93 -19z m196 -19
c91 -48 136 -151 109 -252 -23 -84 -122 -160 -210 -160 -82 0 -175 66 -206
146 -52 136 58 294 206 294 33 0 64 -9 101 -28z"/>
<path d="M8504 5019 c-113 -14 -225 -102 -264 -206 -26 -71 -29 -162 -5 -232
22 -68 99 -152 173 -188 50 -24 69 -28 147 -28 78 0 97 4 146 28 65 32 133
100 159 160 22 51 34 156 21 177 -8 11 -40 15 -153 17 -197 4 -188 8 -188 -77
l0 -69 63 -3 c73 -4 83 -22 27 -50 -96 -49 -207 5 -231 110 -18 80 37 169 118
191 55 15 95 5 142 -35 21 -19 47 -34 56 -34 25 0 125 68 125 85 0 24 -65 89
-118 118 -57 31 -144 45 -218 36z"/>
<path d="M10023 5009 c-130 -23 -205 -130 -173 -247 23 -86 86 -127 238 -156
97 -18 102 -21 102 -46 0 -51 -103 -51 -206 0 l-66 32 -24 -28 c-12 -16 -32
-46 -44 -66 l-21 -37 42 -30 c71 -52 143 -74 245 -75 83 -1 97 2 149 29 80 41
109 93 102 183 -8 103 -65 159 -193 188 -145 33 -183 58 -132 85 30 16 107 5
165 -25 27 -13 54 -21 60 -18 21 14 82 113 77 126 -10 25 -118 75 -184 85 -72
10 -78 10 -137 0z"/>
<path d="M6677 5004 c-4 -4 -7 -103 -7 -220 0 -191 -2 -214 -18 -235 -28 -34
-75 -30 -116 10 l-34 33 -59 -29 c-78 -40 -79 -57 -11 -127 56 -57 98 -76 174
-76 96 0 188 62 221 149 15 39 18 80 18 271 l0 225 -80 3 c-45 1 -84 0 -88 -4z"/>
<path d="M6964 4996 c-3 -8 -4 -108 -2 -223 3 -192 5 -212 26 -258 29 -64 55
-91 117 -123 42 -22 63 -26 135 -27 74 0 93 4 143 28 31 16 68 43 82 61 49 64
55 101 55 338 l0 219 -82 -3 -83 -3 -5 -205 c-6 -227 -9 -242 -67 -266 -44
-19 -83 -11 -114 22 -23 25 -24 31 -29 237 l-5 212 -83 3 c-65 2 -84 0 -88
-12z"/>
<path d="M7657 5003 c-10 -9 -8 -605 1 -621 7 -9 62 -12 243 -10 l234 3 3 76
c3 93 9 90 -166 86 -67 -2 -127 0 -133 4 -6 3 -9 19 -7 35 l3 29 135 5 135 5
0 75 0 75 -115 2 c-155 4 -162 6 -158 46 l3 32 150 5 150 5 3 78 3 77 -239 0
c-131 0 -242 -3 -245 -7z"/>
<path d="M3465 4826 c-94 -30 -170 -87 -219 -164 -19 -31 -243 -418 -968
-1676 -66 -114 -127 -229 -134 -254 -18 -59 -18 -176 1 -238 8 -27 56 -119
108 -204 76 -127 99 -158 128 -173 32 -15 41 -16 75 -5 34 12 46 25 95 108 50
85 708 1225 1057 1832 l137 238 160 0 c88 0 186 4 219 10 131 21 193 79 203
189 l6 61 -217 0 c-119 0 -216 2 -216 4 0 2 27 51 61 108 34 57 70 120 80 141
l19 37 -277 -1 c-195 0 -290 -4 -318 -13z"/>
<path d="M6125 4196 c-27 -13 -64 -39 -82 -57 -17 -19 -176 -285 -354 -592
-346 -600 -343 -593 -305 -665 9 -18 31 -42 49 -52 31 -20 61 -20 1487 -20
1387 0 1457 1 1495 19 72 32 102 69 203 244 439 759 587 1017 599 1046 18 41
3 86 -30 95 -12 3 -177 6 -368 6 l-345 0 -52 -26 c-85 -42 -48 15 -548 -853
-93 -162 -183 -309 -200 -327 -63 -63 -165 -92 -209 -60 -45 32 -34 55 293
624 332 577 339 592 290 626 -19 14 -72 16 -373 16 l-351 0 -50 -25 c-70 -35
-100 -71 -194 -235 -351 -612 -528 -910 -558 -943 -71 -74 -183 -102 -216 -55
-33 46 -50 11 319 648 308 530 322 560 274 594 -21 14 -65 16 -374 16 -347 0
-350 0 -400 -24z"/>
<path d="M2186 4185 c-66 -27 -116 -64 -157 -116 -25 -31 -193 -319 -531 -908
-70 -123 -128 -233 -128 -243 0 -28 26 -74 52 -92 19 -14 62 -16 276 -16 312
0 319 2 384 120 30 56 692 1203 720 1248 l20 32 -289 0 c-282 0 -289 -1 -347
-25z"/>
<path d="M3900 4186 c-63 -33 -77 -51 -179 -225 -71 -121 -91 -163 -91 -192 0
-69 0 -69 385 -69 203 0 355 4 377 10 67 19 119 69 186 180 34 58 75 115 90
128 106 90 236 83 217 -12 -10 -45 -153 -294 -198 -343 -21 -23 -58 -51 -81
-63 -41 -19 -59 -20 -512 -20 -544 0 -546 0 -623 -79 -55 -56 -349 -561 -358
-614 -4 -27 0 -40 16 -56 l21 -21 930 0 c914 0 931 0 973 20 24 11 59 37 79
58 19 20 189 304 378 630 351 608 364 636 331 676 -12 14 -107 16 -955 16
l-941 -1 -45 -23z m608 -763 c8 -10 11 -31 9 -49 -7 -44 -168 -322 -209 -360
-103 -99 -241 -99 -225 -2 8 50 182 343 225 378 70 57 169 74 200 33z"/>
<path d="M9485 4191 c-22 -10 -54 -32 -72 -49 -31 -31 -185 -286 -205 -340
-15 -40 -3 -81 28 -92 14 -6 172 -10 367 -10 338 0 343 0 392 24 70 32 94 58
159 168 79 135 145 188 235 188 54 0 75 -22 68 -72 -5 -39 -150 -301 -191
-346 -11 -13 -41 -36 -66 -50 l-45 -27 -500 -5 c-487 -5 -501 -6 -540 -26 -70
-38 -104 -84 -266 -365 -137 -236 -159 -280 -159 -316 0 -32 5 -45 19 -53 13
-7 327 -10 948 -10 l929 0 52 26 c28 14 62 38 75 53 12 15 177 294 366 620
230 398 345 605 348 630 10 77 85 71 -965 71 -886 0 -939 -1 -977 -19z m592
-762 c31 -27 15 -79 -74 -232 -104 -179 -119 -198 -185 -231 -92 -46 -163 -30
-161 36 1 40 153 311 206 366 67 71 167 99 214 61z"/>
</g>
</svg>
